<svg version="1" xmlns="http://www.w3.org/2000/svg" width="933.333" height="933.333" viewBox="0 0 700.000000 700.000000"><path d="M135.9.2c-.1.2-.3 10.6-.4 23.3-.2 12.6-.3 23.3-.4 23.6 0 .3-1.8 1.3-4 2.2-5.3 2.4-11.9 9.2-15 15.7-2.4 5.1-2.6 6.7-2.9 20.8-.3 12.1.1 18 1.8 28.5 1.2 7.2 2.3 14.5 2.6 16.2.5 3.2 2.2 13.3 3 17.5.2 1.4.6 4.2.9 6.2l.5 3.8h-20.5v84.5c0 56.8-.3 84.6-1 84.8-.5.1-23.4.2-50.7.2L0 327.4V700h700V327.4H598.5V158.5l-10.3-.3c-5.6-.1-10.2-.5-10.2-.7 0-.3 1.4-8.7 3.1-18.7 3.4-20.5 3.2-19.6 4.9-29.6.7-4.3 1-13.9.8-23-.3-14.6-.5-16.1-3-21.2-3-6.3-8.9-12.6-14.5-15.5-2.1-1.1-4-2.3-4.3-2.7-.3-.3-.5-11-.5-23.7V0H542v46.8l-5.3 3c-6.5 3.7-11.2 8.9-14.6 16.2-2.3 5.1-2.5 6.7-2.7 20.5-.1 10.5.5 18.3 1.7 26 1 6 2.1 12.6 2.4 14.5.3 1.9 1.6 9.7 2.9 17.2l2.3 13.8h-4.9c-3.1 0-4.9-.4-5-1.3 0-.6-.2-2.3-.3-3.7-1.2-12.5-5.9-32-10.8-44.6-13.4-34.7-39.9-65.8-72.3-85-13.7-8.1-34.8-16.5-47.5-18.9-2.2-.4-6.3-1.3-15.4-3-6.6-1.4-36.1-1.3-45 .1-39.6 6.1-72.6 22.9-99 50.6-5 5.1-11.3 12.5-14.2 16.2-16.9 22.7-29.3 53.3-31.9 79.3-.3 2.9-.7 6.1-.9 7.1-.2.9-.4 2-.4 2.4-.1.5-2.3.8-4.9.8h-4.8l4.3-25.3c3.7-20.9 4.4-27.9 4.7-41.1.2-10.7-.1-17.5-.9-20.8-2.6-9.6-8.8-17.4-17.5-21.8l-4-2V0h-11c-6 0-11.1.1-11.1.2zm203 39.5c-.2 14.1-.4 16.3-1.8 16.4-7.3.6-31.1.2-31.1-.4 0-1.1 12.7-26.8 14.3-28.8 1.2-1.6 11.2-3.7 16.5-3.5 2.2 0 2.2 0 2.1 16.3zm34.2-15.1c6.4.7 5.6-.3 14.7 17.8 3.7 7.5 6 13.1 5.4 13.5-.8.5-28.5.7-31.4.2-.7-.1-.9-31.2-.1-32.4.3-.5 1.7-.6 3.1-.3 1.5.3 5.2.8 8.3 1.2zm-87.4 21.1c-2.3 5.4-4.2 10-4.4 10.2-.7 1-23.3.6-23.3-.4 0-1.8 28-19.3 31.2-19.5.3 0-1.2 4.4-3.5 9.7zm134.2-5.1c8.5 4.6 19.9 12.2 21.9 14.7.8.9-1.3 1.2-10.1 1-6.2 0-11.7-.2-12.2-.2-.6-.1-1.7-1.8-2.4-3.9-.8-2-2.4-5.8-3.6-8.3-2.9-6.2-3.5-7.9-2.8-7.9.3 0 4.5 2.1 9.2 4.6zM154.2 70.9c3.1 2.8 3.3 3.3 3.6 11l.4 8.1-2.8.1c-2.9.1-16.9.1-19 0-1.6-.1-1.1-14.1.6-16.7 3.7-6 12-7.1 17.2-2.5zm406.1-.8c.7.8 2 2.6 2.7 3.9 1.6 3 2.1 16 .5 16.1-1.4.1-17.6.1-19.9 0-1.6-.1-1.8-.9-1.4-8.2.3-7.7.5-8.2 3.7-11.1 3-2.7 3.9-3 8.2-2.6 2.6.3 5.4 1.1 6.2 1.9zM273 79.5c0 .3-.9 3.8-2 7.9-1.2 4.2-2.3 8.3-2.5 9.3-.2 1-1.1 5.1-2 9l-1.7 7.3h-49.9l.7-2.3c1.2-3.9 8.5-17 13.7-24.5l5.1-7.2h19.3c10.6 0 19.3.2 19.3.5zM338.7 96v17.1l-25.4-.1-25.4-.1.6-2.7c2.2-10.2 3.6-15.7 5.6-22.2 1.1-3.6 2.2-7.1 2.4-7.8.3-.9 5.5-1.2 21.4-1.2h20.9l-.1 17zm65.1-14.3c1.2 3.2 5.2 16.5 5.8 19.7.2 1.2.6 3.1.9 4.3.3 1.3.7 3.4 1 4.8l.5 2.5h-50.8V79h41.6l1 2.7zm67.6 5.6C477 95.8 485 110.2 485 112c0 .6-9.1 1-25 1h-25l-.4-2.3c-.5-2.6-6.3-26.2-7.2-29.5l-.6-2.2h39l5.6 8.3zm-315.9 28.5c-.3 1.5-1.5 8.4-2.5 15.2-4.6 28.5-4.2 27-6.2 27-1 0-1.8-.6-1.9-1.3 0-.6-.2-1.9-.4-2.7-.6-3-3.7-20.6-4-23.3-.2-1.5-.9-5.3-1.5-8.4-1.8-9.8-2.2-9.3 8.1-9.3h9.1l-.7 2.8zm407-1.6c-.4 1.1-7.5 42.3-7.5 43.4 0 .2-.8.4-1.8.4-1.4 0-2-1.4-3-7.8-.7-4.2-1.4-8.8-1.7-10.2-.3-1.3-.7-4.2-1-6.5-.3-2.2-1-6.3-1.5-9-.5-2.8-1.2-6.5-1.5-8.3l-.5-3.2h9.5c7.1 0 9.3.3 9 1.2zm-301.3 22.2c.4.6.5 2.2.2 3.6-.3 2-1.1 11.2-1.3 16.7-.1 1-6.4 1.3-28.2 1.3h-28.1l.6-5.3c.9-8.5 2.6-16.1 3.6-16.7 1.7-1.1 52.4-.6 53.2.4zm77.5 10.3l.1 11.3h-56.1l.6-10.3c.4-5.6.7-10.7.7-11.2 0-.7 9.3-1 27.3-1h27.2l.2 11.2zm76.7-10.6c.4.3.9 5.4 1.3 11.3l.6 10.6h-56.1v-10.8c0-5.9.4-11 .9-11.3 1.2-.7 52.6-.6 53.3.2zm77 0c.7.7 2.2 8.5 3.1 16.1l.7 5.8h-28.1c-21.8 0-28.1-.3-28.2-1.3-.2-3.8-1-14.7-1.3-17.4-.2-1.8-.2-3.4 0-3.6.6-.5 53.2-.2 53.8.4zm-311.8 72.7l.1 28.2h-56.6l.1-27.8c0-15.2.2-27.9.3-28.2.2-.3 12.8-.5 28.2-.4h27.8l.1 28.2zm314.6-27.9c1.5.1 1.6 2.7 1.6 28.1v28h-76.4L393 214.5 365.5 192h-15.6c-13.4 0-15.8.2-17.5 1.7-1.1 1-6.7 5.6-12.4 10.3-5.8 4.7-11.4 9.2-12.5 10.1-1.1 1-7.8 6.5-15 12.3l-13 10.6H203.2l-.1-27.7c0-15.3.4-28 .8-28.3.7-.4 284.5-.5 291.3-.1zm78.4 0c2.1.1 2.1.3 2.2 28.1v28h-56.4v-27.8c-.1-15.2.3-27.9.7-28.2.6-.4 45.9-.5 53.5-.1zm-213.3 35.8c3.8 3.4 7.3 6.3 48.2 39.7 22 18 40.9 33.5 42 34.4 1.1 1 6.7 5.5 12.5 10.2 5.8 4.7 11.4 9.2 12.5 10.2 1.1.9 17.3 14.2 36 29.5 37.7 30.8 41.9 34.2 48 39.3 2.3 1.9 6.2 5.1 8.5 7 24.7 20 29.6 24.3 30.2 26.7.4 1.4.5 2.9.3 3.3-.3.4-112.1.7-248.6.6l-248.2-.1-.1-2.8c-.2-2.4 1.3-4 9.9-11 5.5-4.5 10.9-8.9 12-9.9 3.3-2.8 54.3-44.4 64.5-52.6 5.2-4.3 10.6-8.7 12-9.9 1.4-1.2 16.9-13.9 34.5-28.3 17.6-14.3 33.8-27.6 36-29.5 2.2-1.8 7-5.7 10.6-8.7 3.7-2.9 17.6-14.3 31-25.2 13.4-11 25.9-21.2 27.7-22.6 3-2.5 4-2.7 10.8-2.5 5.8.2 8 .7 9.7 2.2zm-110 43.7c-.1.4-4.4 4.1-9.5 8.3-5.1 4.1-10.9 8.8-12.8 10.4l-3.5 2.9H124.2v-10.9c.1-10.4.2-11 2.2-11.3 4.9-.7 124.1-.2 123.9.6zm325.1.6c.3.8.4 5.9.4 11.2 0 8.4-.2 9.8-1.6 9.9-1 0-6 .1-11.2.2l-9.5.2-.2 11.2-.3 11.3H575.7l.1 29.5V364l-4.2-3.3c-2.2-1.7-5-4-6.1-4.9-3-2.5-15.7-12.9-19.6-16.1-1.9-1.5-12-9.9-22.6-18.5l-19.2-15.7 13.3-.3 13.2-.3v-11.2l-.1-11.2-27.5-.3-27.5-.2-7.5-6.1c-4.1-3.3-9.5-7.7-11.9-9.7-2.4-2.1-5-4.1-5.7-4.5-.8-.4-1.4-1.1-1.4-1.5 0-.4 28.4-.7 63-.7 55.2 0 63.1.2 63.4 1.5zm-380 44.9c-.5.4-9.9 8.1-20.9 17.1-21.9 17.8-24.6 20-35.1 28.7-12.9 10.6-13.8 11.3-14.5 11.3-.4 0-.7-13.1-.7-29v-29h36.1c20 0 35.7.4 35.1.9zm-93.9 60.6l.1 16-7.6 6.2-7.5 6.3-32-.3-32-.2V373c-.1-11.8.1-21.8.3-22.3.2-.4 18-.6 39.5-.5l39.2.3v16zm576 5c.1 11.5-.1 21.6-.3 22.2-.6 1.9-63.5 1.9-65.4 0-.7-.7-4-3.5-7.3-6.2l-6-5 .1-15.5c.1-8.5.2-15.8.2-16.3.1-.4 17.9-.6 39.4-.5l39.3.3v21zM78 417.9c.6.1 1 4.5 1 11.1 0 9.8.2 11 1.8 11.1.9.1 6 .1 11.2.1h9.5v21.5c0 11.8.3 22 .7 22.6.4.7 2.9 1.2 5.5 1.2h4.8l.3 73.2.2 73.3-2.7.1c-1.6.1-4 0-5.4-.1-1.5 0-2.8.5-3.1 1.2-.2.7-.4 10.8-.3 22.5.1 14.1-.2 21.3-.9 21.6-1 .2-72.7.1-76.6-.2-1.3-.1-1.5-15.2-1.5-129.3l.1-129.2 2.3-.6c1.7-.4 48.2-.5 53.1-.1zm598.5 0c.7.1 1 43.5.9 128.3-.1 70.6-.2 129-.3 129.8-.1 1.3-5 1.5-38.3 1.4-21.1-.1-38.8-.2-39.3-.3-.7-.1-1.1-7.1-1-20.8 0-11.5-.1-21.6-.3-22.6-.4-1.4-1.5-1.7-5.8-1.7H587l.2-73.3.3-73.2h4.8c2.6 0 5.1-.5 5.5-1.2.4-.6.7-10.8.7-22.6l-.1-21.5h9.6c5.2 0 10.3 0 11.3-.1 1.5-.1 1.7-1.3 1.7-10.9 0-6 .2-11.1.4-11.3.3-.3 49.9-.3 55.1 0zm-507.4 23.5c.1 1.4.1 19.8 0 20.8-.1.5-10.2.8-22.5.8h-22.4V440.3h22.4c15.5 0 22.4.3 22.5 1.1zm67.9 21.3c0 12.2.3 22.3.8 22.4.4.1 2.9.2 5.7.3l4.9.1.1 72.4c0 39.7-.3 72.8-.6 73.3-.4.6-3 1-5.8 1l-5.1-.2-.2 22.7-.3 22.7h-44l-.3-22.5-.2-22.6-5.2-.2c-2.8 0-5.3-.3-5.6-.6-.3-.3-.6-33.1-.6-73-.1-63.7.1-72.6 1.4-72.9.8-.2 3.4-.3 5.8-.2l4.2.2v-45.3h45v22.4zm68-11V463h-45.5l.2-11.2c.1-6.2.2-11.3.2-11.4.1 0 10.2-.1 22.6-.1H305v11.4zm67.5 11c0 14.1.4 22.3 1 22.4.6.1 3 .2 5.5.3l4.5.2.2 73.2c.2 63.2 0 73.2-1.3 73.3-.7 0-3.3.2-5.6.2l-4.3.2.1 22.2c0 21.8 0 22.3-2 22.4-5.3.3-41.2.4-42.2.2-.6-.3-1-7.4-.9-21.1.1-22-.1-24.3-1.9-24.1-.6.1-3 .1-5.3 0l-4.2-.1.2-73.3.2-73.2 5-.1c2.8-.1 5.2-.2 5.5-.3.3 0 .5-9.9.4-21.9 0-11.9.1-22 .2-22.3.2-.3 10.4-.5 22.6-.5l22.3.1v22.2zm67.6-21c.1.7.1 5.3.1 10.3 0 4.9 0 9.4-.1 10-.1.6-8.3 1-22.6 1H395V440.3h22.5c18 0 22.5.3 22.6 1.4zm67.9 21.2l.5 22.6h5c2.8-.1 5.2.2 5.5.6.4.6.5 141.4.1 145.4-.1.6-2.5.9-5.6.8l-5.5-.2v22.4c0 20.4-.1 22.3-1.7 22.7-1 .2-11 .3-22.3.3h-20.5L463 655l-.5-22.5-4.8-.2c-2.7-.1-5.2-.4-5.5-.8-1.1-1-.8-144.6.3-145.5.6-.4 2.6-.6 4.5-.5 6.2.4 6 1.3 6-23v-22.2h22.3l22.2.1.5 22.5zm67.8-11.2V463h-22.3c-17 0-22.4-.3-22.7-1.3-.3-1-.2-14.2.1-19.8.1-1.4 2.7-1.6 22.4-1.6h22.4l.1 11.4zm-418 107.2l-.3 73.3H149c-4.7 0-9.6-.1-11-.1l-2.5-.1V485.4l11.2.1H158l-.2 73.4zm135.3-73c.1.3.2 33.3.3 73.3l.1 72.8-2.5.1c-2.7.1-14.1.1-17.7 0l-2.3-.1V485.5l11-.1c6.1 0 11.1.2 11.1.5zm135.7 73l-.3 73.4-10.2-.1c-5.7 0-10.6-.3-11-.5-.6-.4-1-145.9-.4-146.3H418l11 .1-.2 73.4zM564.1 486c.5 1.9.3 145.3-.2 145.6-.7.4-10.7.7-17.6.5l-4.3-.1v-72.8c0-40.1.2-73.1.5-73.3.6-.6 21.5-.5 21.6.1zM169.3 665.5c-.1 5.5-.2 10.5-.2 11-.1.7-8 1-22.3 1l-22.3-.1-.2-11.2-.1-11.2 22.6.2 22.6.3-.1 10zm135.7.5c0 10.7-.1 11-2.2 11.1-10 .5-41.5.3-42.3-.2-.8-.6-1.1-12.6-.6-20.7.1-.9 5.3-1.2 22.6-1.2H305v11zm135.1-9.3c.4 7.4.3 18.1-.2 19.3-.6 1.3-3.9 1.5-22.1 1.4-11.7-.1-21.6-.2-22-.3-.5-.1-.8-5.1-.8-11.1v-11h22.5c20.7 0 22.5.1 22.6 1.7zm135.7 9.2c0 7.4-.4 11.1-1.2 11.3-.9.3-42.2.2-43.6-.1-.4-.1-.5-20.7-.1-21.9.1-.1 10.2-.2 22.5-.2h22.4v10.9z"/><path d="M328.4 273.8c-24.6 20.4-62.7 51.6-68 55.7-2.1 1.6-4.5 3.7-5.4 4.5-.9.8-7.4 6.2-14.5 12-7.2 5.7-13.2 10.7-13.5 11-.3.3-2.7 2.3-5.5 4.5-6.7 5.3-21.4 17.5-24.4 20.2l-2.4 2.1h155.1c85.4 0 155.2-.1 155.2-.3 0-.2-7.1-6.1-15.7-13.2-8.7-7-16-13-16.3-13.3-.3-.3-2.7-2.3-5.5-4.5-2.7-2.2-6.1-5-7.5-6.2-1.4-1.1-10.6-8.7-20.5-16.8-9.9-8.1-19.8-16.1-22-17.9-44.6-36.7-66.9-54.6-67.8-54.5-.7 0-10.3 7.6-21.3 16.7zm25.4 14.9c2 1.6 4.8 3.8 6.2 5 1.4 1.1 15.6 12.8 31.5 25.8 16 13.1 30.8 25.2 33 27 2.2 1.8 7.1 5.8 10.9 8.9l6.9 5.6h-8.9c-14 .1-165.3.1-170.8 0h-5l3-2.4c14.1-11.5 44.4-36.2 46.4-37.9 1.4-1.2 4.5-3.8 7-5.7 2.5-1.9 4.7-3.7 5-4 .8-1 30.3-25 30.7-25 .2 0 2 1.2 4.1 2.7z"/></svg>